<?xml version="1.0" encoding="utf-8" ?><svg xmlns="http://www.w3.org/2000/svg" xmlns:xlink="http://www.w3.org/1999/xlink" width="839" height="1024" viewBox="0 0 839 1024"><path fill="#292828" d="M528.9 40.5443C534.7 39.9905 537.247 41.3149 540.882 45.7721C545.721 51.7168 549.445 58.5321 553.59 64.987C575.088 98.4583 599.224 134.373 596.282 176.053C595.852 182.135 593.147 194.851 594.438 200.498C595.645 205.775 598.844 213.938 600.637 219.281C604.436 230.489 607.927 241.798 611.106 253.198C629.68 320.153 638.33 392.472 617.723 460.015C601.858 511.113 568.852 555.175 524.276 584.767C510.984 593.767 498.344 600.271 484.223 607.781C489.507 616.107 494.016 623.566 499.001 632.43C504.657 642.488 509.977 656.526 516.945 665.463C518.744 667.77 529.341 672.376 532.269 673.748C563.289 688.279 590.931 692.143 624.793 692.313C631.564 683.481 648.235 653.703 657.066 650.987C660.675 649.878 664.141 650.627 667.563 651.918C676.423 655.262 684.669 661.069 693.11 665.407C718.055 678.225 743.066 691.123 767.773 704.392C773.878 707.67 783.846 711.752 785.762 718.973C787.028 723.745 785.387 728.783 783.036 732.927C777.049 743.479 768.751 753.489 761.658 763.342L726.729 812.417L692.507 860.73C686.308 869.504 680.281 878.237 673.702 886.746C664.875 898.161 656.018 892.652 645.778 887.113C638.021 882.917 630.503 878.3 622.884 873.922C611.006 876.043 600.836 876.642 588.827 877.038C594.709 889.308 598.495 897.685 598.595 911.907C599.228 928.463 587.253 945.693 570.74 950.095C538.015 958.819 501.228 958.868 467.561 960.176C437.269 961.352 407.641 961.138 377.534 961.082C336.013 961.393 279.528 960.389 240.472 945.147C216.425 935.763 196.443 913.304 187.288 889.436C178.73 867.126 176.266 844.439 176.427 820.451C176.888 751.993 196.284 679.234 222.857 616.48C214.176 611.994 204.882 608.251 196.038 603.679C64.9299 535.911 29.1245 377.089 67.9782 243.797C69.0569 240.097 69.823 236.181 70.2163 232.346C71.3552 192.189 69.0663 151.744 72.0387 111.63C73.5517 100.345 70.7529 74.7596 90.016 87.8577C101.162 95.4365 111.302 104.001 121.961 112.255C137.919 124.484 153.791 136.825 169.576 149.276C181.809 159.048 193.743 169.315 206.254 178.751C219.783 172.768 233.309 166.741 247.274 161.829C308.518 140.951 373.44 133.064 437.902 138.673C460.747 140.749 480.955 144.394 503.321 148.871C505.376 139.471 506.72 129.572 508.27 120.047L516.629 70.0737C518.223 61.0343 521.141 45.9709 528.9 40.5443ZM85.5107 100.796C85.2518 107.406 84.4856 117.657 84.7054 123.937C111.047 141.134 154.766 173.64 130.768 210.148C119.122 227.865 100.679 235.439 81.8265 242.955C79.8621 250.112 77.9309 257.229 76.2097 264.45C57.7719 341.806 64.0641 427.967 103.895 497.9C106.166 501.954 108.613 505.908 111.228 509.749C155.135 572.38 208.781 606.401 284.548 619.519C365.282 633.496 450.997 619.769 518.882 572.35C568.477 537.707 602.693 486.525 612.815 426.654C622.363 370.172 612.586 306.509 597.175 251.745C592.448 234.946 585.922 217.943 580.845 201.111C545.07 188.812 548.514 151.031 549.612 120.413C549.983 110.083 551.548 98.7574 553.314 88.5844C550.842 84.7965 534.551 59.1507 532.804 57.3819C530.685 65.2988 529.144 75.5628 527.704 83.794C525.121 98.341 522.679 112.913 520.381 127.508C519.119 135.581 516.98 157.011 511.985 162.08C506.005 164.705 482.526 157.728 473.784 156.296C439.73 150.766 405.182 148.901 370.73 150.732C328.566 153.043 286.964 161.49 247.237 175.806C239.557 178.559 231.963 181.544 224.464 184.756C218.375 187.357 210.308 191.652 204.021 192.659C197.804 189.65 188.948 181.789 183.497 177.274C177.867 172.633 172.187 168.054 166.457 163.538C140.75 143.112 111.907 120.053 85.5107 100.796ZM235.514 620.633C228.868 636.599 222.234 652.327 216.794 668.777C196.882 728.99 175.857 827.613 200.696 887.239C209.198 907.649 224.982 924.904 245.65 933.273C259.872 939.033 275.308 941.943 290.49 943.714C318.499 946.98 346.975 947.836 375.149 948.399C410.903 949.113 540.419 948.705 568.725 936.593C575.366 933.751 580.927 929.18 583.568 922.305C587.818 911.244 583.649 897.725 578.977 887.481C577.253 883.728 575.377 880.046 573.354 876.444C549.827 873.571 527.348 870.203 504.187 865.023C431.225 848.706 360.902 815.583 311.376 758.177C306.334 752.333 307.635 747.519 315.176 745.434C315.342 745.504 315.508 745.573 315.673 745.646C322.021 748.483 336.829 766.421 343.504 772.356C353.266 780.874 363.45 788.897 374.016 796.396C394.398 810.713 417.266 822.75 440.337 832.096C490.536 852.433 585.054 875.67 636.485 856.779C641.52 854.929 646.063 852.54 650.595 849.69C641.881 850.668 629.603 853.076 621.614 848.211C619.004 846.622 618.667 841.378 620.932 839.313C622.945 837.431 626.928 837.649 629.575 837.708C641.076 838.533 651.416 836.979 662.033 832.077C661.599 826.643 661.45 823.505 659.943 818.222C649.578 824.931 635.844 828.201 623.639 826.301C617.36 825.323 613.559 821.339 617.931 815.462C623.039 812.738 630.362 813.782 635.996 813.203C641.485 812.604 646.805 810.948 651.665 808.327C626.875 791.449 600.702 800.315 572.067 799.658C513.993 798.771 457.987 772.445 416.743 732.166C407.236 722.882 392.349 707.737 387.076 695.274C384.813 689.926 393.755 684.895 398.537 690.95C405.923 700.303 412.168 708.726 420.625 717.396C443.814 741.56 471.983 760.389 503.176 772.577C512.172 776.073 520.625 778.442 529.678 781.43C528.57 770.387 527.647 759.555 525.894 748.576C519.634 709.754 506.497 672.362 487.102 638.156C483.653 631.971 476.291 618.362 472.119 613.662C471.681 613.567 471.187 613.404 470.785 613.447C449.522 621.757 430.338 628.002 407.647 631.948C353.322 641.394 287.379 639.41 235.514 620.633ZM596.075 734.612L615.955 705.554C577.873 703.847 558.189 699.65 522.766 684.165C529.397 703.519 531.936 715.771 537.142 734.474C546.503 740.831 571.011 751.379 581.855 755.878C586.503 748.728 591.243 741.639 596.075 734.612ZM110.2 213.215C129.308 197.423 128 180.823 112.39 162.936C105.872 155.467 92.9391 143.884 84.0152 139.591L83.4985 228.315C91.938 224.782 103.516 219.612 110.2 213.215ZM574.391 766.489C562.481 761.673 551.421 756.49 539.769 751.091C541.13 762.435 542.395 772.963 543.27 784.339C549.405 784.886 555.3 785.967 561.372 786.751C562.909 783.806 564.234 781.456 565.966 778.624C568.379 775.11 571.861 769.709 574.391 766.489ZM656.45 861.683C651.003 865.193 647.467 866.644 641.589 869.401C646.83 872.278 657.5 878.842 662.189 880.935L727.245 788.989C742.495 767.579 759.428 744.835 773.951 723.063C767.478 718.753 759.094 714.676 752.077 711.034C742.862 706.235 733.673 701.386 724.51 696.488L686.872 676.64C679.195 672.551 668.919 666.694 661.166 663.35C653.959 671.503 640.218 693.332 633.455 703.226C614.319 730.842 595.422 758.621 576.765 786.563C605.097 786.406 640.75 778.547 662.602 800.587C665.699 803.71 667.957 806.706 670.535 810.23C675.095 803.28 681.799 788.29 691.221 789.61C696.025 790.284 699.849 794.818 702.004 798.907C699.323 805.308 685.437 826.308 680.631 830.768C678.636 831.075 676.946 831.385 674.917 831.444C671.695 846.183 668.262 852.284 656.45 861.683ZM564.13 107.304C561.657 126.219 558.669 162.883 570.541 178.502C573.52 182.421 577.202 185.279 581.707 187.253C584.55 163.555 582.743 144.736 572.193 123.039C569.749 118.014 567.689 111.671 564.13 107.304Z"/><path fill="#292828" d="M363.843 401.712C372.238 400.372 398.327 401.947 402.792 408.465C410.181 419.251 382.607 442.323 375.389 447.747C377.772 476.886 376.353 495.399 371.749 524.099C395.059 523.293 417.196 513.676 433.693 497.187C438.684 492.215 446.454 477.376 453.661 484.276C460.887 491.193 441.796 507.351 437.113 511.613C411.433 534.992 379.814 537.98 347.731 535.889C346.856 539.478 345.909 543.049 344.888 546.6C338.807 567.818 328.215 587.693 308.214 598.77C284.108 611.463 253.641 595.15 251.313 567.843C249.151 542.497 260.287 520.576 275.587 501.438C270.26 495.94 258.472 484.616 259.025 477.295C259.844 466.433 270.005 473.06 273.57 478.784C275.326 481.605 280.892 488.47 282.88 490.575C302.927 511.806 329.856 521.341 358.425 523.835C363.255 502.763 364.746 470.784 362.564 449.448C357.578 443.818 353.205 435.068 346.658 431.439C342.338 428.998 335.645 427.069 331.828 424.07C310.125 407.018 354.817 402.494 363.843 401.712ZM328.031 554.955C330.768 547.938 332.962 540.85 335.126 533.638C327.532 531.534 321.607 529.874 314.279 526.996C311.227 532.766 307.301 537.921 304.686 543.932C302.78 548.224 302.174 553.114 300.146 557.338C299.392 558.908 297.792 560.932 295.991 561.265C287.649 562.805 287.105 556.298 288.626 550.181C291.257 539.601 296.698 530.516 302.557 521.573C299.465 519.701 286.645 510.814 285.158 510.329C270.951 528 251.856 567.164 274.688 584.787C280.104 588.982 287.007 590.763 293.777 589.712C311.315 587.147 321.753 569.879 328.031 554.955Z"/><path fill="#292828" d="M484.088 337.205C496.081 335.291 507.366 343.43 509.335 355.413C511.305 367.397 503.219 378.72 491.244 380.745C479.191 382.783 467.778 374.632 465.795 362.569C463.812 350.507 472.016 339.131 484.088 337.205Z"/><path fill="#292828" d="M235.425 337.149C247.437 335.64 258.417 344.101 260.02 356.101C261.623 368.1 253.248 379.147 241.261 380.843C229.141 382.559 217.945 374.07 216.324 361.937C214.704 349.804 223.28 338.674 235.425 337.149Z"/><path fill="#292828" d="M216.544 238.69C222.422 238.145 239.567 238.735 241.786 244.098C248.102 259.36 225.989 251.106 222.586 251.09C203.348 250.995 189.421 261.547 183.541 279.499C181.915 284.426 182.267 292.586 176.007 293.767C172.851 294.362 169.075 292.957 168.627 289.428C167.341 279.303 173.713 266.58 179.417 258.692C188.516 246.108 201.652 240.877 216.544 238.69Z"/><path fill="#292828" d="M470.817 214.21C484.14 213.508 495.884 216.544 506.209 225.23C511.103 229.564 519.117 237.184 519.37 244.209C519.773 255.44 508.38 250.091 505.099 243.917C504.009 241.865 500.021 237.639 498.566 236.2C496.452 234.133 494.052 232.38 491.44 230.993C476.789 223.253 463.424 227.547 449.997 234C446.349 235.62 442.021 232.875 441.826 229.119C441.289 218.81 463.774 215.065 470.817 214.21Z"/><path fill="#292828" d="M535.831 455.732C541.101 455.031 549.453 459.222 545.993 464.148C541.103 471.111 523.664 470.18 515.685 470.124C513.044 470.305 511.747 470.221 509.13 470.04C493.274 455.364 528.461 456.04 535.831 455.732Z"/><path fill="#292828" d="M127.807 435.548C129.186 435.488 130.568 435.475 131.948 435.509C139.009 435.699 177.546 437.508 161.119 451.286C154.192 452.275 144.684 449.813 137.651 449.346C129.329 448.794 118.193 444.828 127.807 435.548Z"/><path fill="#292828" d="M146.235 404.548C147.405 404.525 148.575 404.567 149.741 404.673C157.547 405.442 193.205 411.76 176 423.872C169.756 423.453 127.914 416.522 146.235 404.548Z"/><path fill="#292828" d="M524.354 424.642C525.67 424.437 529.182 424.134 530.205 425.031C543.966 437.091 513.87 440.48 506.714 442.254C505.24 442.493 501.182 442.804 500.021 441.918C485.305 430.692 518.302 425.882 524.354 424.642Z"/><path fill="#292828" d="M514.401 486.072C522.439 486.418 549.489 493.465 532.042 503.431C526.648 502.819 512.52 500.525 509.645 495.109C507.625 491.303 510.846 487.798 514.401 486.072Z"/><path fill="#292828" d="M150.086 473.203C153.314 473.554 155.899 475.823 156.364 478.994C157.584 487.304 139.985 488.612 134.412 489.278C133.315 489.067 131.39 488.748 130.551 488.148C128.431 486.632 126.349 482.481 128.448 480.203C133.038 475.222 143.858 473.887 150.086 473.203Z"/><path fill="#292828" d="M664.312 680.387C664.526 680.391 664.74 680.385 664.954 680.397C670.574 680.721 738.611 717.821 748.479 724.045C750.439 725.281 752.004 726.615 753.552 728.336C749.522 736.641 736.486 753.663 730.489 761.444C729.849 761.859 729.234 762.004 728.501 762.258C723.769 761.797 646.732 717.308 642.849 713.807C644.983 706.29 659.089 686.833 664.312 680.387Z"/><path fill="#292828" d="M618.398 749.046C627.111 748.83 645.219 757.995 633.498 768.105C625.335 766.694 607.121 758.878 618.398 749.046Z"/><path fill="#292828" d="M633.416 728.021C641.129 727.81 660.614 737.309 648.397 746.35C639.709 746.439 621.778 737.881 633.416 728.021Z"/><path fill="#292828" d="M666.233 746.87C674.75 746.607 693.225 757.094 680.279 765.565C672.421 764.17 653.218 755.43 666.233 746.87Z"/><path fill="#292828" d="M698.032 765.979C706.303 765.371 725.679 775.164 713.715 783.917C705.479 784.505 687.451 775.304 698.032 765.979Z"/><path fill="#292828" d="M651.186 767.967C658.64 767.478 677.871 777.67 665.589 786.447C658.258 786.996 638.85 775.917 651.186 767.967Z"/></svg>