<?xml version="1.0" encoding="utf-8" ?><svg xmlns="http://www.w3.org/2000/svg" xmlns:xlink="http://www.w3.org/1999/xlink" width="512" height="512" viewBox="0 0 512 512"><clipPath id="cl_4"><rect x="-1.5258789e-05" width="512" height="512"/></clipPath><g clip-path="url(#cl_4)"><path transform="matrix(1.10583 0 0 1.12281 -81.8315 0)" d="M199.209 235.288C223.956 235.57 248.879 235.085 273.636 235.401C273.49 253.346 273.452 271.291 273.525 289.236C273.526 299.928 273.115 313.788 273.731 324.202C281.26 316.126 289.68 305.599 296.866 297.026L329.459 258.37C331.506 255.924 347.985 235.692 349.281 235.744C370.017 236.573 390.435 249.365 401.667 266.691C406.32 273.868 409.108 280.581 411.295 288.848C417.086 312.98 409.783 337.691 392.149 355.033C383.375 363.715 372.415 369.864 360.432 372.828C348.799 375.599 339.391 374.907 327.525 374.901L296.639 374.885L199.037 374.863L198.717 267.36C198.719 262.673 198.263 238.098 199.209 235.288Z"/><path transform="matrix(1.10583 0 0 1.12281 -81.8315 0)" d="M198.75 115.305C199.446 115.267 200.143 115.248 200.84 115.248L291.666 115.269L319.747 115.26C329.867 115.258 338.36 114.721 348.31 116.995C358.674 119.447 368.14 124.763 375.628 132.337C387.73 144.476 393.579 158.559 393.563 175.719C393.559 191.503 387.23 206.628 375.989 217.711C355.18 238.407 332.67 235.213 305.552 235.162L273.873 235.121C273.651 227.749 273.785 219.701 273.779 212.297L273.754 172.699C273.755 166.077 274.178 152.181 273.472 146.252C272.259 147.997 269.776 150.716 268.287 152.444C264.98 156.247 261.708 160.081 258.474 163.947L215.142 215.375L206.742 225.403C204.842 227.633 200.22 232.574 199.067 234.908C198.33 227.509 198.896 219.645 198.712 212.192C198.535 204.995 199.036 197.787 199.062 190.598L198.75 115.305Z"/></g></svg>